<?xml version="1.0" encoding="utf-8"?>
<!-- Generator: Adobe Illustrator 26.0.3, SVG Export Plug-In . SVG Version: 6.00 Build 0)  -->
<svg version="1.1" id="Ebene_1" xmlns="http://www.w3.org/2000/svg" xmlns:xlink="http://www.w3.org/1999/xlink" x="0px" y="0px"
	 viewBox="0 0 500 500" style="enable-background:new 0 0 500 500;" xml:space="preserve">
<style type="text/css">
	.st0{fill:#6F727A;}
	.st1{fill:#1940B0;}
	.st2{fill:#FFFFFF;}
</style>
<path class="st0" d="M360,240c-13.9,0-26.7,3.6-38.8,8.8l-44.1-80c7.7-7.3,12.8-17.4,12.8-28.8c0-22-18-40-40-40s-40,18-40,40
	s18,40,40,40c3.3,0,6.6-0.5,9.7-1.2l48.1,87.2l4.7,8.8l9.1-4.7c11.4-6.3,24.4-10,38.4-10c44.3,0,80,35.7,80,80s-35.7,80-80,80
	c-21.6,0-41.2-8.6-55.6-22.5l-13.8,14.4c18,17.3,42.5,28.1,69.4,28.1c55.1,0,100-44.9,100-100S415.1,240,360,240z"/>
<path class="st0" d="M360,380c22,0,40-18,40-40s-18-40-40-40c-18.5,0-34,12.8-38.4,30H210v10c0,44.3-35.7,80-80,80s-80-35.7-80-80
	c0-37.6,25.9-68.8,60.6-77.5l-5-19.7C62.1,253.7,30,293.2,30,340c0,55.1,44.9,100,100,100c51.6,0,92.9-39.8,98.1-90h93.4
	C326,367.2,341.5,380,360,380z"/>
<path class="st1" d="M97.3,319c-11.5,18.8-5.5,43.5,13.3,55c18.8,11.5,43.5,5.5,55-13.3c9.7-15.8,6.8-35.7-5.5-48.4l58.2-95.2
	l-8.5-5.2c-37.8-23.1-49.6-72.2-26.5-110s72.2-49.6,110-26.5c32.1,19.6,45.2,58,34.5,92.2l19.4,6c13.5-42.8-3.6-90.8-43.5-115.2
	c-47-28.8-108.7-13.9-137.5,33.1c-26.9,44-14.5,100,25.6,130.7L143,301.9C126,296.7,107,303.2,97.3,319z"/>
<circle class="st2" cx="250" cy="140" r="20"/>
<path class="st2" d="M140,357.2c9.7-5.6,12.8-17.5,7.2-27.2c-4.2-7.3-12-11-19.7-10c-2.6,0.3-5.1,1.4-7.5,2.8
	c-9.7,5.6-12.8,17.5-7.2,27.2S130.3,362.8,140,357.2z"/>
<circle class="st2" cx="360" cy="340" r="20"/>
<circle class="st2" cx="360" cy="340" r="20"/>
<circle class="st2" cx="250" cy="140" r="20"/>
</svg>
