<svg xmlns="http://www.w3.org/2000/svg" viewBox="0 0 60.24 60.24"><defs><style>.cls-1{fill:#6f727a;}.cls-2{fill:#1940b0;}</style></defs><title>Asset 10</title><g id="Layer_2" data-name="Layer 2"><g id="Layer_2-2" data-name="Layer 2"><path class="cls-1" d="M3.77,56.48H60.24v3.77H0V0H7.53V3.77H3.77V11.3H7.53v3.77H3.77v7.53H7.53v3.77H3.77v7.53H7.53v3.77H3.77v7.53H7.53v3.77H3.77Z"/><path class="cls-2" d="M46.91,24.55c-.22,3.33-.49,7.46-1.72,7.46-2.2,0-2.81-1.2-3.86-4.36-1-2.93-2.31-6.94-7.43-6.94-5.36,0-6.5,6.84-7.5,12.87-.72,4.33-1.62,9.72-3.79,9.72-3.84,0-5.64-10.11-5.65-16.94H13.18c0,2.12.27,20.71,9.41,20.71,5.36,0,6.5-6.84,7.5-12.87.72-4.33,1.62-9.72,3.79-9.72s2.81,1.2,3.86,4.36c1,2.93,2.31,6.94,7.43,6.94,4.76,0,5.13-5.58,5.48-11,.59-9,1.62-15.38,9.58-15.38V5.65C48.14,5.65,47.4,17,46.91,24.55Z"/></g></g></svg>