<svg xmlns="http://www.w3.org/2000/svg" xmlns:xlink="http://www.w3.org/1999/xlink" viewBox="0 0 82.46 46.53"><defs><style>.cls-1{fill:#fff;}.cls-2{fill:#1940b0;}.cls-3{mask:url(#mask);}.cls-4{fill:#6f727a;}</style><mask id="mask" x="39.85" y="-21.15" width="63.33" height="53.33" maskUnits="userSpaceOnUse"><polygon class="cls-1" points="49.68 -18.15 51.18 2.85 56.84 7.52 60.18 17.68 68.01 21.58 71.51 30.02 87.34 32.19 103.18 -14.15 73.84 -21.15 49.68 -18.15"/></mask></defs><title>Asset 11</title><g id="Layer_2" data-name="Layer 2"><g id="Layer_2-2" data-name="Layer 2"><path class="cls-2" d="M0,31.71c.21-.9.35-1.82.63-2.7a13.14,13.14,0,0,1,7.61-8.38A1,1,0,0,0,9,19.72a9.7,9.7,0,0,1,10.46-8.42,9.28,9.28,0,0,1,4,1.22l.58.32A18.33,18.33,0,0,1,34.93,3.5a18,18,0,0,1,11,0A18.37,18.37,0,0,1,58.79,21.58a41.11,41.11,0,0,1,4,1.42A12.36,12.36,0,0,1,60.6,46a14.74,14.74,0,0,1-3.42.46c-4.06.05-8.13,0-12.19,0A2.2,2.2,0,0,1,43.66,46a1.29,1.29,0,0,1,.56-2.16,3.69,3.69,0,0,1,1-.12c4,0,8,0,12.05,0a9.61,9.61,0,0,0,.51-19.21c-1.57,0-2-.63-1.88-2.19a15,15,0,0,0-3.49-11.2A14.77,14.77,0,0,0,40.05,5.47C33.51,5.72,28.88,9,26.13,14.95c-.06.12-.1.25-.16.38-.55,1.3-1.56,1.51-2.63.57A6.87,6.87,0,0,0,15.5,14.8a6.77,6.77,0,0,0-3.84,6.13c0,1.19-.31,1.56-1.43,1.92A10.67,10.67,0,0,0,11.4,43.5a13.11,13.11,0,0,0,2.43.2c3.59,0,33.9,0,37.48,0a3.08,3.08,0,0,1,1,.15,1.24,1.24,0,0,1,.86,1.32,1.26,1.26,0,0,1-.93,1.21,2.4,2.4,0,0,1-.73.12c-4.11,0-34.94.06-39-.09A13.29,13.29,0,0,1,.54,36.73C.34,36,.18,35.2,0,34.43Z"/><g class="cls-3"><path class="cls-4" d="M39.85,17.76c.13-.55.21-1.11.39-1.65A8,8,0,0,1,44.88,11a.64.64,0,0,0,.44-.56,5.92,5.92,0,0,1,6.39-5.15A5.67,5.67,0,0,1,54.16,6l.35.2A11.2,11.2,0,0,1,61.19.53a11,11,0,0,1,6.71,0,11.23,11.23,0,0,1,7.87,11.05,25.12,25.12,0,0,1,2.47.87,7.55,7.55,0,0,1-1.36,14.07,9,9,0,0,1-2.09.28c-2.48,0-5,0-7.45,0a1.35,1.35,0,0,1-.82-.3.79.79,0,0,1,.34-1.32,2.25,2.25,0,0,1,.61-.08c2.45,0,4.91,0,7.36,0a5.87,5.87,0,0,0,.31-11.74c-1,0-1.23-.38-1.15-1.34a9.14,9.14,0,0,0-2.13-6.84,9,9,0,0,0-7.55-3.44,9.23,9.23,0,0,0-8.51,5.79l-.09.23a.91.91,0,0,1-1.61.35,4.2,4.2,0,0,0-4.79-.67A4.14,4.14,0,0,0,47,11.18c0,.73-.19,1-.87,1.17A6.52,6.52,0,0,0,46.81,25a8,8,0,0,0,1.49.12h6.57a1.88,1.88,0,0,1,.61.09A.76.76,0,0,1,56,26a.77.77,0,0,1-.57.74,1.47,1.47,0,0,1-.45.07c-2.51,0-5,0-7.53-.05a8.12,8.12,0,0,1-7.29-5.92c-.12-.46-.22-.94-.33-1.4Z"/></g></g></g></svg>