<svg xmlns="http://www.w3.org/2000/svg" viewBox="0 0 57.99 67.62"><defs><style>.cls-1{fill:#1940b0;}.cls-2{fill:#6f727a;}</style></defs><title>Asset 12</title><g id="Layer_2" data-name="Layer 2"><g id="Layer_2-2" data-name="Layer 2"><path class="cls-1" d="M36.39,26.49h1.1a3.69,3.69,0,0,1,3.82,3.75q0,6.17,0,12.34A3.7,3.7,0,0,1,37.6,46.2c-5.66,0-11.32,0-17,0a3.78,3.78,0,0,1-3.88-3.05,4.67,4.67,0,0,1-.06-.78c0-4,0-8.08,0-12.12a3.68,3.68,0,0,1,3.74-3.76H21.6c0-.18,0-.31,0-.45,0-1.35,0-2.7.07-4a7.37,7.37,0,0,1,14.64-.18,33.29,33.29,0,0,1,.08,3.72C36.39,25.85,36.39,26.15,36.39,26.49ZM29,43.74h8.37c1.07,0,1.51-.44,1.51-1.5q0-5.9,0-11.8c0-1-.45-1.47-1.46-1.48H20.51a1.23,1.23,0,0,0-1.37,1.33q0,6.08,0,12.16a1.22,1.22,0,0,0,1.32,1.3Zm4.91-17.27c0-1.45.1-2.89,0-4.3a4.74,4.74,0,0,0-5.23-4.29,4.82,4.82,0,0,0-4.55,4.81c0,1.15,0,2.29,0,3.44,0,.11,0,.23,0,.34Z"/><path class="cls-1" d="M27.77,38.17a1.41,1.41,0,0,1,0-.14,1.2,1.2,0,0,0-.45-1.15,2.4,2.4,0,0,1,0-3.58,2.46,2.46,0,1,1,3.15,3.77.54.54,0,0,0-.25.5c0,.4,0,.8,0,1.2a1.23,1.23,0,1,1-2.47,0c0-.19,0-.38,0-.57Z"/><path class="cls-2" d="M0,20.38c0-.26,0-.52.05-.79A58.6,58.6,0,0,1,.63,12c.11-.7.26-1.4.42-2.09A1.39,1.39,0,0,1,2,8.83C7.76,6.91,13.46,5,19.18,3.05c3-1,6.08-2,9.12-2.95a1.89,1.89,0,0,1,1.23,0c4.85,1.57,9.71,3.12,14.56,4.7,3.84,1.26,7.66,2.57,11.51,3.83a1.92,1.92,0,0,1,1.48,1.66c.19,1.38.44,2.75.58,4.13a67.75,67.75,0,0,1,.3,9.14,53.2,53.2,0,0,1-6.64,24.77,44.39,44.39,0,0,1-7.14,9.18A46.63,46.63,0,0,1,30,67.3l-.75.33H28.8s0,0,0,0a43.83,43.83,0,0,1-8-4.32A45.24,45.24,0,0,1,8.91,51.77C3.4,43.9.79,35.05.14,25.55c-.07-1-.09-2-.14-3Zm54.64.74h-.09c0-.69,0-1.38,0-2.07a38.1,38.1,0,0,0-.61-7,.64.64,0,0,0-.48-.55C51.3,10.74,49.14,10,47,9.28,41.39,7.46,35.82,5.67,30.25,3.84a3.92,3.92,0,0,0-2.62,0c-5.37,1.79-10.76,3.53-16.14,5.3-2.32.76-4.64,1.56-7,2.35-.21.07-.41.14-.45.41-.14.91-.36,1.81-.41,2.73-.12,2.11-.23,4.23-.22,6.35,0,2.33,0,4.68.25,7a49,49,0,0,0,1.83,9.15,41.57,41.57,0,0,0,14.9,21.85A52.52,52.52,0,0,0,28.82,64a.51.51,0,0,0,.4,0c1-.5,1.92-1,2.86-1.52a41.61,41.61,0,0,0,20-24.31,49.56,49.56,0,0,0,2.16-10.24C54.5,25.68,54.53,23.4,54.64,21.12Z"/></g></g></svg>