<svg xmlns="http://www.w3.org/2000/svg" viewBox="0 0 56.49 60.52"><defs><style>.cls-1{fill:#6f727a;}.cls-2{fill:#1940b0;}</style></defs><title>Asset 8</title><g id="Layer_2" data-name="Layer 2"><g id="Layer_2-2" data-name="Layer 2"><path class="cls-1" d="M0,56.21V4.34a.78.78,0,0,0,.08-.16A5,5,0,0,1,5.34,0H37a1.73,1.73,0,0,1,1.32.53Q45.11,7.35,52,14.15a1.63,1.63,0,0,1,.51,1.26c0,2.7,0,5.41,0,8.11q0,7.43,0,14.86a1,1,0,0,0,.18.63c.85.85,1.78,1.62,2.58,2.52a5.31,5.31,0,0,1,1.12,1.9,3.58,3.58,0,0,1-1.23,3.72Q48.75,53.52,42.39,59.9a2,2,0,0,1-1.51.62H5.53l-.77,0a4.6,4.6,0,0,1-3.72-2A14,14,0,0,1,0,56.21Zm34.3,2.3c0-.28,0-.47,0-.67,0-1.38,0-2.76,0-4.14a1.77,1.77,0,0,1,.45-1.09q6.45-6.52,12.95-13A3.91,3.91,0,0,1,50,38.41a2.08,2.08,0,0,0,.36-.11V16.14H41.68a5.05,5.05,0,0,1-5.35-5.39q0-4,0-8.05c0-.21,0-.41,0-.68H30.75Q18.14,2,5.53,2a4.33,4.33,0,0,0-1.67.27A3.11,3.11,0,0,0,2,5.51Q2,30.37,2,55.23A3,3,0,0,0,5.31,58.5h29ZM38.38,3.43c0,.32,0,.46,0,.59,0,2.29,0,4.57,0,6.86a3,3,0,0,0,3.25,3.26c2.31,0,4.61,0,6.92,0a2.44,2.44,0,0,0,.34,0Zm.89,50.5,8.6-8.6-1.39-1.48-8.6,8.6Zm10.32-7L41,55.57,42.32,57,51,48.29ZM48,42.2l4.6,4.61c.1-.09.23-.2.35-.33.36-.37.74-.72,1.06-1.11a1.53,1.53,0,0,0,0-2.2,32.62,32.62,0,0,0-2.34-2.34,1.6,1.6,0,0,0-2.34.06C48.87,41.32,48.44,41.78,48,42.2ZM36.36,58.44H40.6l-4.24-4.29Z"/><path class="cls-2" d="M32.27,26.24H23.52c-.29,0-.67,0-.83-.18a1.67,1.67,0,0,1-.44-1c0-.45.36-.72.81-.81a2.56,2.56,0,0,1,.47,0H41.34a1,1,0,0,1,1,1,1,1,0,0,1-1,1c-1.24,0-2.48,0-3.73,0Z"/><path class="cls-2" d="M32.24,38.34H23.36c-.45,0-.88-.11-1-.54a1.19,1.19,0,0,1,.06-1,1.59,1.59,0,0,1,1.05-.47c2.19,0,4.38,0,6.57,0H41.33a1,1,0,0,1,1,1,1,1,0,0,1-1.08,1c-1.26,0-2.53,0-3.79,0Z"/><path class="cls-2" d="M31.27,32.29H23.4a1.08,1.08,0,0,1-1.09-.55,1,1,0,0,1,1-1.45c1,0,2,0,3,0H39a1.82,1.82,0,0,1,.85.18.87.87,0,0,1,.43,1.06,1,1,0,0,1-1.06.76h-8Z"/><path class="cls-2" d="M30.26,44.39h-6.8c-.8,0-1.26-.38-1.26-1s.47-1,1.28-1H37.09c1,0,1.53.73,1.14,1.47a1.09,1.09,0,0,1-1.1.54Z"/><path class="cls-2" d="M12.9,35.8l3-4.52c.13-.2.26-.4.4-.58a1,1,0,0,1,1.36-.26A1,1,0,0,1,18,31.84c-.45.72-.93,1.41-1.4,2.12L14.08,37.7a1,1,0,0,1-1.81.21q-.92-.88-1.81-1.79a1,1,0,1,1,1.44-1.42C12.24,35,12.54,35.4,12.9,35.8Z"/><path class="cls-2" d="M17.36,18.5a.8.8,0,0,0-1.12-.06c-.15.11-.29.25-.43.38-.88.81-4.45,4.09-4.94,4.57a.81.81,0,0,0,0,1.16.8.8,0,0,0,1.12.06c.15-.11.29-.25.43-.38l3.44-3.18c.5-.46,1-.92,1.51-1.4A.81.81,0,0,0,17.36,18.5Z"/><path class="cls-2" d="M10.82,18.5a.8.8,0,0,1,1.12-.06c.15.11.29.25.43.38.88.81,4.45,4.09,4.94,4.57a.81.81,0,0,1,0,1.16.8.8,0,0,1-1.12.06c-.15-.11-.29-.25-.43-.38l-3.44-3.18c-.5-.46-1-.92-1.51-1.4A.81.81,0,0,1,10.82,18.5Z"/><path class="cls-2" d="M12.9,47.95l3-4.52c.13-.2.26-.4.4-.58a1,1,0,0,1,1.36-.26A1,1,0,0,1,18,44c-.45.72-.93,1.41-1.4,2.12l-2.49,3.74a1,1,0,0,1-1.81.21q-.92-.88-1.81-1.79a1,1,0,1,1,1.44-1.42C12.24,47.18,12.54,47.55,12.9,47.95Z"/><path class="cls-2" d="M28.27,18.18h4.79c.76,0,1.21.37,1.22,1s-.45,1-1.19,1H23.39a1,1,0,0,1-1.14-.74.91.91,0,0,1,.44-1.12,1.57,1.57,0,0,1,.73-.15C25,18.17,26.66,18.18,28.27,18.18Z"/><path class="cls-2" d="M27.2,50.43H23.41c-.76,0-1.21-.38-1.21-1s.44-1,1.2-1h7.69c.76,0,1.19.4,1.17,1s-.44,1-1.22,1Z"/></g></g></svg>