<svg xmlns="http://www.w3.org/2000/svg" viewBox="0 0 76.99 76.99"><defs><style>.cls-1{fill:#1940b0;}.cls-2{fill:#6f727a;}</style></defs><title>Asset 7</title><g id="Layer_2" data-name="Layer 2"><g id="Layer_2-2" data-name="Layer 2"><path class="cls-1" d="M38.48,63.22c-.27.29-.51.55-.75.8a5.37,5.37,0,0,1-7.61.64,8.6,8.6,0,0,1-1.19-1A16.51,16.51,0,0,0,24.68,60c-1.65-.86-2.12-2.67-2.07-4.54a1.39,1.39,0,0,0-.42-1A8.74,8.74,0,0,1,18.5,46.6a2.3,2.3,0,0,0-.8-2,9.77,9.77,0,0,1-2-11.92,4,4,0,0,0,.39-1.74,15,15,0,0,1,1.77-7.86,8,8,0,0,1,4.77-3.73,1.9,1.9,0,0,0,1-.67,5.91,5.91,0,0,1,4.74-3,2.11,2.11,0,0,0,1-.49c2.73-2,5.58-2.65,8.7-.92a1.06,1.06,0,0,0,.88,0c3.16-1.77,6-1.08,8.78,1a2.1,2.1,0,0,0,1,.44,5.83,5.83,0,0,1,4.59,2.88c.19.27.44.61.73.69,3.75,1,5.52,3.71,6.41,7.21A7.1,7.1,0,0,1,60.72,28,25,25,0,0,0,62,35c1.2,3.76.05,7.09-2.84,9.76a1.78,1.78,0,0,0-.69,1.57,8.84,8.84,0,0,1-3.74,8.18,1.26,1.26,0,0,0-.38,1,5.32,5.32,0,0,1-3.33,5.4,3.91,3.91,0,0,0-1.39,1.09,11.58,11.58,0,0,1-3.83,3.38,5,5,0,0,1-5.8-.6C39.52,64.26,39.05,63.76,38.48,63.22ZM50.89,19.76a2.5,2.5,0,0,0-2.38-1.41,2.83,2.83,0,0,1-2.4-1,4.71,4.71,0,0,0-5.28-1.07,1.4,1.4,0,0,0-1,1.51q0,20.55,0,41.11a4.47,4.47,0,0,0,1.28,3.22c1.22,1.33,2.64,1.59,4,.46a37.62,37.62,0,0,0,2.94-3.06,3.52,3.52,0,0,1,1.35-1C51.35,58,52,57,51.68,55.06c-.29-1.75-.29-1.75,1.24-2.58a5.21,5.21,0,0,0,2.79-5.41,5.57,5.57,0,0,1-4.52,0,7.77,7.77,0,0,1-3.86-4.43,1.2,1.2,0,0,1,.7-1.61,1.24,1.24,0,0,1,1.68.54c.39.59.65,1.27,1.08,1.84a3,3,0,0,0,4.41.88A17.87,17.87,0,0,0,58,42.15,5.37,5.37,0,0,0,59.8,37.5a31,31,0,0,0-1.07-4,15.41,15.41,0,0,1-.51-2.31c-.14-1.35,0-2.73-.29-4.06-.44-2.42-1.62-4.38-4.14-5.16a2.32,2.32,0,0,0-1.47.07A5.18,5.18,0,0,0,49,26.39a1.29,1.29,0,0,1-1.46,1.22,1.27,1.27,0,0,1-1.13-1.45A6.84,6.84,0,0,1,46.61,25,8.07,8.07,0,0,1,50.89,19.76ZM27,37.21h-.5A8.64,8.64,0,0,1,19.94,34a1.23,1.23,0,0,1,0-1.9,1.25,1.25,0,0,1,1.9.1l.27.28c2.44,2.49,4.49,2.79,7.46,1,1.05-.63,2-1.41,3-2.11a2.9,2.9,0,0,1,3-.38,1.12,1.12,0,0,1,.7,1.51,1.77,1.77,0,0,1-1.24.94,2.5,2.5,0,0,0-1.65.59c-.84.61-1.7,1.18-2.55,1.78a1.81,1.81,0,0,0-.49.45,6.48,6.48,0,0,0,1.23,8.25A1.33,1.33,0,1,1,30,46.6c-.59-.44-1.11-1-1.71-1.5-1.91,2.25-4.22,3.13-7.07,2a5.38,5.38,0,0,0,2.82,5.4c1.55.86,1.55.86,1.26,2.57-.34,2,.32,3,2.24,3.53a3.21,3.21,0,0,1,1.29.89c1,1,1.81,2.11,2.83,3a2.54,2.54,0,0,0,3.14.48,3.94,3.94,0,0,0,2.31-3.35c0-14,0-28,0-42a1.18,1.18,0,0,0-.81-1.24,4.78,4.78,0,0,0-5.61,1.12,2.61,2.61,0,0,1-2.15.84,2.63,2.63,0,0,0-2.52,1.38c.43.28.85.53,1.24.82a7.43,7.43,0,0,1,3.22,5.62,1.3,1.3,0,0,1-2.59.31c-.06-.25-.07-.51-.14-.77A4.83,4.83,0,0,0,24.2,21.9c-1.45-.33-2.62.72-3.56,1.8a6.82,6.82,0,0,0-1,1.56,11.41,11.41,0,0,0-.87,5.42,6.6,6.6,0,0,1-.64,3.16c-2.53,5.52,0,8.66,4.31,10.83,1.76.89,4.55-1,4.55-2.81C27,40.34,27,38.83,27,37.21Z"/><path class="cls-2" d="M59.92,18.36c-.35-.32-.83-.56-1-.94a1.4,1.4,0,0,1,.1-1.24q2.43-2.58,5-5a1.14,1.14,0,0,1,1.73.19,1.23,1.23,0,0,1-.08,1.83c-1.26,1.3-2.56,2.57-3.84,3.85a7.64,7.64,0,0,1-.84.81A7.45,7.45,0,0,1,59.92,18.36Z"/><path class="cls-2" d="M18.41,60a7,7,0,0,1-.73,1.18q-2.17,2.23-4.39,4.4a1.31,1.31,0,0,1-2,.11,1.32,1.32,0,0,1,.17-2c1.47-1.5,2.94-3,4.49-4.44a1.82,1.82,0,0,1,1.46-.35C17.76,59,18,59.57,18.41,60Z"/><path class="cls-2" d="M72.38,37.16c1,0,2.07,0,3.11,0a1.34,1.34,0,1,1,0,2.66q-3.15,0-6.31,0a1.37,1.37,0,0,1-1.49-1.33c0-.78.62-1.32,1.58-1.33S71.35,37.16,72.38,37.16Z"/><path class="cls-2" d="M37.16,72.34c0-1,0-2.07,0-3.11a1.34,1.34,0,1,1,2.66,0q0,3.1,0,6.21a1.35,1.35,0,1,1-2.66,0C37.15,74.41,37.16,73.37,37.16,72.34Z"/><path class="cls-2" d="M37.16,4.58c0-1,0-2.07,0-3.1a1.34,1.34,0,1,1,2.66,0q0,3.15,0,6.3a1.34,1.34,0,1,1-2.66,0C37.14,6.71,37.15,5.65,37.16,4.58Z"/><path class="cls-2" d="M4.68,37.15c1,0,2,0,3,0s1.59.55,1.59,1.33a1.38,1.38,0,0,1-1.49,1.33q-3.15,0-6.3,0a1.34,1.34,0,1,1,0-2.66c1.07,0,2.13,0,3.2,0Z"/><path class="cls-2" d="M18.33,17c-.25.32-.47.84-.84,1a1.5,1.5,0,0,1-1.33-.08c-1.72-1.61-3.39-3.29-5-5a1.14,1.14,0,0,1,.14-1.66,1.14,1.14,0,0,1,1.67-.13c1.71,1.63,3.36,3.32,5,5A3.1,3.1,0,0,1,18.33,17Z"/><path class="cls-2" d="M66.24,64.87c-.29.36-.52.87-.89,1A1.51,1.51,0,0,1,64,65.81c-1.7-1.59-3.35-3.25-5-4.93a1.15,1.15,0,0,1,.12-1.74,1.16,1.16,0,0,1,1.74,0c1.63,1.58,3.23,3.19,4.82,4.81A4.24,4.24,0,0,1,66.24,64.87Z"/><path class="cls-1" d="M52.74,38.78a7.84,7.84,0,0,1-7.07-4.57c-.54-1.06-1-2.19-1.5-3.25a2.91,2.91,0,0,0-.89-1c-.59-.42-.95-.9-.69-1.63a1.28,1.28,0,0,1,1.54-.88,3.11,3.11,0,0,1,2.36,2.08,38.19,38.19,0,0,0,1.81,3.85c1.45,2.4,3,3,5.83,2.47.35-.07.69-.17,1-.24a1.29,1.29,0,0,1,1.68.91,1.25,1.25,0,0,1-1,1.62C54.84,38.41,53.79,38.57,52.74,38.78Z"/><path class="cls-1" d="M47.12,52.71A7.68,7.68,0,0,1,47,54a1.23,1.23,0,0,1-1.45,1,1.2,1.2,0,0,1-1.13-1.35,6.72,6.72,0,0,0-2.11-5.69,1.27,1.27,0,0,1,0-1.91,1.29,1.29,0,0,1,1.91.06A9.6,9.6,0,0,1,47.12,52.71Z"/><path class="cls-1" d="M28.68,56.51a9.54,9.54,0,0,1,2.89-6.67,1.3,1.3,0,0,1,2-.12,1.27,1.27,0,0,1,0,1.9,7.14,7.14,0,0,0-2.05,3.77,8.41,8.41,0,0,0-.05,1.73,1.33,1.33,0,0,1-1.13,1.55,1.31,1.31,0,0,1-1.48-1.2C28.73,57.13,28.71,56.77,28.68,56.51Z"/></g></g></svg>