<svg xmlns="http://www.w3.org/2000/svg" viewBox="0 0 61.23 78.81"><defs><style>.cls-1{fill:#1940b0;}.cls-2{fill:#6f727a;}</style></defs><title>Asset 9</title><g id="Layer_2" data-name="Layer 2"><g id="Layer_2-2" data-name="Layer 2"><path class="cls-1" d="M52.79,0a9.8,9.8,0,0,1,4,1.9,7.51,7.51,0,0,1,1.54,9.38,7.49,7.49,0,0,1-14-4.18,7.61,7.61,0,0,1,6-7A4,4,0,0,0,50.79,0Zm2.62,7.6a3.62,3.62,0,1,0-7.23-.12,3.69,3.69,0,0,0,3.6,3.74A3.65,3.65,0,0,0,55.41,7.6Z"/><path class="cls-1" d="M49.8,26.14l-4.08,4.1a2,2,0,0,1-2.13.49,1.57,1.57,0,0,1-1.19-1.54A2.68,2.68,0,0,1,43,27.53c2.42-2.51,4.89-5,7.38-7.42a2,2,0,0,1,2.88,0q3.69,3.65,7.34,7.34a2,2,0,0,1,.14,2.76,2,2,0,0,1-2.89,0c-1.16-1.13-2.29-2.28-3.43-3.42-.18-.18-.36-.34-.68-.63,0,1,0,1.77,0,2.57a24,24,0,0,1-.59,6.63A15.43,15.43,0,0,1,40.76,46.18a22.15,22.15,0,0,1-2.22.18,1.93,1.93,0,1,1-.16-3.85,11.66,11.66,0,0,0,4.76-1.06,11,11,0,0,0,6.63-9.39C49.94,30.17,49.8,28.25,49.8,26.14Z"/><path class="cls-1" d="M7.51,78.81a7.54,7.54,0,0,1,0-15.08,7.54,7.54,0,0,1,0,15.08Zm3.6-7.54a3.64,3.64,0,0,0-3.57-3.67,3.66,3.66,0,0,0,0,7.32A3.66,3.66,0,0,0,11.12,71.28Z"/><path class="cls-2" d="M24.74,26.66c1.39,1.37,2.73,2.64,4,4a1.9,1.9,0,0,1-.4,3.12A2,2,0,0,1,26,33.32c-1.13-1.11-2.25-2.25-3.38-3.37L22,29.4l-3.78,3.77a2.2,2.2,0,0,1-1.83.79,1.76,1.76,0,0,1-1.58-1.16,1.93,1.93,0,0,1,.43-2.13q1.68-1.69,3.37-3.37a8.3,8.3,0,0,1,.75-.58c-1.4-1.39-2.67-2.68-4-3.95a2.09,2.09,0,0,1-.71-1.71,1.76,1.76,0,0,1,1.12-1.61,1.88,1.88,0,0,1,2.14.38c1.16,1.12,2.3,2.27,3.43,3.42A8.26,8.26,0,0,1,22,24L26,19.89a1.91,1.91,0,0,1,2.12-.47A1.77,1.77,0,0,1,29.36,21a2,2,0,0,1-.69,1.79C27.39,24,26.13,25.28,24.74,26.66Z"/><path class="cls-2" d="M28.76,70.57c-1.27,1.28-2.46,2.51-3.7,3.7a3.5,3.5,0,0,1-1.27.81,1.82,1.82,0,0,1-2.07-.81A2,2,0,0,1,22,71.91c.88-.93,1.8-1.83,2.71-2.73.44-.43.89-.85,1.4-1.33-1.33-1.33-2.61-2.62-3.9-3.89a2.09,2.09,0,0,1-.72-1.78,1.75,1.75,0,0,1,1.18-1.57,1.92,1.92,0,0,1,2.13.44c1.15,1.13,2.29,2.28,3.43,3.42.18.18.37.34.61.57,1.27-1.28,2.51-2.54,3.77-3.77a3.06,3.06,0,0,1,1.07-.71,1.87,1.87,0,0,1,2.2.82,2,2,0,0,1-.31,2.41c-1.09,1.13-2.2,2.22-3.31,3.32-.22.22-.47.4-.75.64,1.38,1.38,2.7,2.67,4,4A1.92,1.92,0,0,1,35,75a2,2,0,0,1-2.32-.48c-1.12-1.1-2.22-2.21-3.32-3.32Z"/><path class="cls-2" d="M54.46,57.76c1.46,1.44,2.81,2.74,4.12,4.07a2,2,0,0,1,.23,2.47,2,2,0,0,1-2.4.64,3.29,3.29,0,0,1-.84-.65c-1.24-1.22-2.46-2.46-3.78-3.78l-2.66,2.69c-.42.42-.82.85-1.25,1.25a1.95,1.95,0,1,1-2.7-2.78c1.26-1.28,2.54-2.54,4.1-4.09a4.12,4.12,0,0,1-.91-.5q-1.66-1.6-3.27-3.26a1.94,1.94,0,1,1,2.75-2.73c1.32,1.29,2.6,2.61,4,4,1.3-1.31,2.54-2.57,3.8-3.8a3.06,3.06,0,0,1,1.06-.72,1.88,1.88,0,0,1,2.21.8,2,2,0,0,1-.25,2.35c-1.1,1.15-2.23,2.26-3.36,3.38C55,57.29,54.8,57.48,54.46,57.76Z"/><path class="cls-1" d="M17.4,45.55a1.94,1.94,0,0,1-1.9,2,2,2,0,0,1-2-1.87,1.93,1.93,0,0,1,3.86-.12Z"/><path class="cls-1" d="M24.93,44.45a1.93,1.93,0,0,1-3.86,0,1.93,1.93,0,1,1,3.86,0Z"/><path class="cls-1" d="M28.77,44.37a1.93,1.93,0,1,1,3.85.18,1.93,1.93,0,0,1-3.85-.18Z"/><path class="cls-1" d="M9.43,57.8a2,2,0,0,1-1.9,1.92,2,2,0,0,1-1.95-1.9,2,2,0,0,1,2-2A1.92,1.92,0,0,1,9.43,57.8Z"/><path class="cls-1" d="M11.57,50.53a1.89,1.89,0,0,1-1.85,1.93,1.92,1.92,0,0,1-1.94-1.94,1.83,1.83,0,0,1,1.95-1.89A1.79,1.79,0,0,1,11.57,50.53Z"/></g></g></svg>